<svg width="36" height="36" viewBox="0 0 36 36" fill="none" xmlns="http://www.w3.org/2000/svg">
<path d="M16.4619 2.44226C16.4494 2.42943 16.4408 2.41367 16.4369 2.39661C16.4329 2.37954 16.4338 2.3618 16.4394 2.34517C16.4452 2.32855 16.4553 2.31365 16.469 2.30202C16.4827 2.29039 16.4994 2.28244 16.5174 2.27898L17.3233 2.12769C17.3387 2.12493 17.3532 2.11898 17.3658 2.11027C17.3785 2.10156 17.3891 2.09028 17.3966 2.07727L17.7881 1.39048C17.7973 1.37552 17.8103 1.36311 17.8261 1.35446C17.8418 1.34583 17.8596 1.34129 17.8778 1.34129C17.896 1.34129 17.9139 1.34583 17.9295 1.35446C17.9453 1.36311 17.9584 1.37552 17.9676 1.39048L18.3691 2.07246C18.3766 2.08511 18.3867 2.09613 18.3989 2.10482C18.4111 2.11351 18.425 2.11966 18.4399 2.12288L19.2482 2.26456C19.2663 2.26803 19.283 2.27599 19.2967 2.28762C19.3105 2.29925 19.3206 2.31414 19.3262 2.33077C19.332 2.34738 19.3328 2.36513 19.3289 2.3822C19.3249 2.39926 19.3163 2.41502 19.3039 2.42786L18.7456 2.99937C18.7355 3.01009 18.7278 3.02264 18.7231 3.03627C18.7183 3.0499 18.7165 3.0643 18.7178 3.07861L18.8264 3.85424C18.8286 3.87165 18.8258 3.88928 18.8184 3.90535C18.811 3.9214 18.7992 3.93528 18.7843 3.94556C18.7694 3.95584 18.7518 3.96214 18.7335 3.96382C18.7151 3.9655 18.6967 3.96249 18.6799 3.95509L17.9221 3.62851C17.9085 3.62137 17.8933 3.61762 17.8778 3.61762C17.8623 3.61762 17.8471 3.62137 17.8336 3.62851L17.0935 3.96471C17.0766 3.9727 17.0579 3.9762 17.0391 3.97481C17.0204 3.97344 17.0024 3.96723 16.987 3.95687C16.9717 3.9465 16.9596 3.93236 16.9521 3.91597C16.9447 3.89959 16.942 3.88156 16.9444 3.86385L17.043 3.08822C17.0453 3.07386 17.0439 3.05918 17.0392 3.0454C17.0343 3.03162 17.0261 3.01912 17.0151 3.00898L16.4619 2.44226ZM7.52177 25.1876C7.49348 25.0798 7.43108 24.9828 7.34299 24.9098C7.25489 24.8369 7.14536 24.7913 7.02916 24.7794C7.158 24.5153 7.35251 23.9869 7.07968 23.5931C6.85232 23.2642 6.39256 23.353 6.16521 23.4106C6.07041 23.1529 5.88825 22.9325 5.64735 22.7839C5.55577 22.7381 5.45422 22.713 5.35074 22.7109C5.24727 22.7089 5.1447 22.7298 5.05117 22.7719C4.95277 22.8087 4.86428 22.866 4.79217 22.9395C4.72005 23.0131 4.66613 23.101 4.63434 23.1969C4.56529 23.4664 4.58829 23.7498 4.70003 24.0061C4.49035 24.1166 4.10638 24.3807 4.17206 24.777C4.25036 25.2573 4.75813 25.4974 5.03601 25.591C4.96121 25.679 4.91494 25.7858 4.90283 25.8984C4.89071 26.0109 4.91329 26.1243 4.9678 26.225C5.14274 26.4511 5.40221 26.605 5.69281 26.6548C5.69281 26.7532 6.22331 27.7378 6.93064 27.4521C7.63797 27.1662 7.36261 26.0737 7.28936 26.0113C7.47024 25.773 7.55293 25.48 7.52177 25.1876ZM16.1108 15.2221L16.0905 11.7114H17.0127C17.0127 11.7114 17.0127 9.90557 17.0127 9.50456C17.0127 8.99307 17.73 8.89221 17.73 8.89221L17.5708 8.17182L17.8589 4.71391C17.8614 4.7033 17.8677 4.69383 17.8766 4.68705C17.8855 4.68025 17.8966 4.67656 17.9081 4.67656C17.9196 4.67656 17.9306 4.68025 17.9397 4.68705C17.9486 4.69383 17.9548 4.7033 17.9574 4.71391L18.2858 8.16701L18.1342 8.88741C18.1342 8.88741 18.8567 8.97866 18.8592 9.49014C18.8592 9.88876 18.8592 11.6969 18.8592 11.6969H19.7813L19.804 15.2077L21.6532 16.0746L21.6809 20.4618L26.2938 20.4354L27.2158 19.5517V17.7963L28.1328 16.915H29.0548L29.9846 17.7867L30.0073 21.8498L29.9289 21.8882C29.7041 22.0078 29.5088 22.1716 29.3554 22.3685C29.1183 22.3793 28.8872 22.4436 28.6814 22.5559C28.4754 22.6681 28.3003 22.8253 28.1707 23.0144C27.9166 23.4005 27.8263 23.8641 27.9181 24.3111C27.7712 24.4805 27.6681 24.6804 27.6175 24.8946C27.5798 25.0602 27.5703 25.2305 27.5897 25.3988C27.4799 25.356 27.3656 25.3246 27.2487 25.3053L27.2284 22.1835H26.3064L26.3266 25.4205C26.1192 25.5114 25.9316 25.6384 25.7734 25.7951H25.6748C25.5824 25.7873 25.4894 25.7873 25.397 25.7951L25.3742 22.1667H24.4522L24.475 26.3162C24.216 26.6407 24.0822 27.0401 24.096 27.4472L20.7994 27.4664L20.7766 23.9557V23.0792H19.8545H18.9047C18.9047 23.0792 19.3797 22.8247 19.7232 21.7369C19.7315 21.7124 19.7324 21.6862 19.7258 21.6613C19.7192 21.6364 19.7053 21.6138 19.6859 21.596C19.6663 21.5782 19.642 21.566 19.6155 21.5608C19.5891 21.5555 19.5616 21.5575 19.5363 21.5663C18.8794 21.8065 17.9927 21.1486 17.9927 21.1486C17.9927 21.1486 17.1136 21.8065 16.4543 21.5832C16.4288 21.575 16.4013 21.5736 16.375 21.5793C16.3487 21.585 16.3246 21.5975 16.3053 21.6153C16.2859 21.6332 16.2722 21.6558 16.2655 21.6807C16.2589 21.7055 16.2595 21.7316 16.2674 21.7561C16.6235 22.839 17.1036 23.0889 17.1036 23.0889H16.1563H15.2317V23.9677L15.2519 27.4761L11.9678 27.4928C11.977 27.0855 11.8378 26.6876 11.5738 26.3667L11.551 22.2172H10.6264L10.6492 25.8455C10.56 25.8307 10.4694 25.8243 10.3789 25.8264H10.2804C10.1195 25.6725 9.93025 25.5478 9.72206 25.459L9.70438 22.2219H8.7798L8.79748 25.3437C8.6802 25.3639 8.56578 25.397 8.45645 25.4421C8.47532 25.2734 8.46421 25.103 8.42361 24.9378C8.37077 24.7237 8.26514 24.5245 8.11542 24.3567C8.20811 23.9105 8.11773 23.4474 7.8628 23.0624C7.73013 22.8754 7.55312 22.7206 7.34602 22.6104C7.13893 22.5004 6.90752 22.438 6.67045 22.4285C6.51572 22.2311 6.3185 22.0674 6.09195 21.9482L6.01363 21.9122L5.98838 17.8467L6.9079 16.9654H7.82996L8.75706 17.8371V19.5925L9.68418 20.5122L14.2995 20.4882L14.2818 16.1081L16.1108 15.2221ZM8.02699 19.3595C8.0265 19.2351 7.98719 19.1136 7.91406 19.0104C7.84092 18.9073 7.73722 18.827 7.6161 18.7798C7.49496 18.7326 7.36184 18.7207 7.23355 18.7454C7.10526 18.7701 6.98757 18.8304 6.89536 18.9188C6.80315 19.0071 6.74056 19.1195 6.71552 19.2416C6.69047 19.3637 6.70408 19.4901 6.75464 19.605C6.80519 19.7198 6.89042 19.8176 6.99954 19.8864C7.10866 19.9552 7.23676 19.9915 7.36767 19.9911C7.54211 19.9885 7.70852 19.9209 7.83094 19.8028C7.95336 19.6846 8.02197 19.5255 8.02194 19.3595H8.02699ZM13.4255 26.626L13.4001 22.2412H12.4781L12.5034 26.626H13.4255ZM27.9509 19.2515C27.9514 19.3759 27.9908 19.4974 28.0639 19.6006C28.137 19.7039 28.2408 19.7841 28.3618 19.8313C28.4829 19.8785 28.6161 19.8905 28.7444 19.8656C28.8727 19.841 28.9904 19.7806 29.0826 19.6923C29.1748 19.6039 29.2374 19.4916 29.2624 19.3694C29.2875 19.2474 29.2739 19.1209 29.2233 19.0062C29.1727 18.8914 29.0875 18.7934 28.9784 18.7246C28.8693 18.656 28.7411 18.6195 28.6103 18.62C28.5229 18.6196 28.4364 18.6358 28.3557 18.6674C28.2749 18.699 28.2015 18.7455 28.1398 18.8042C28.0779 18.863 28.029 18.9327 27.9958 19.0094C27.9625 19.0863 27.9455 19.1685 27.9459 19.2515H27.9509ZM22.6182 22.1932L22.646 26.5755H23.568L23.5428 22.1932H22.6182ZM18.9047 16.9438L18.9249 20.4546H19.8495L19.8293 16.9438H18.9047ZM17.1541 13.4499C17.182 13.7613 17.3283 14.0525 17.5658 14.2687C17.5841 14.2894 17.5959 14.3143 17.6001 14.341C17.6043 14.3676 17.6008 14.3948 17.5898 14.4196C17.5788 14.4444 17.5609 14.4658 17.538 14.4816C17.515 14.4973 17.488 14.5068 17.4597 14.5089H17.1515V15.2677H18.7481V14.5089H18.4424C18.4135 14.5081 18.3855 14.4995 18.3616 14.4841C18.3376 14.4686 18.3189 14.447 18.3075 14.4218C18.296 14.3966 18.2925 14.3688 18.2971 14.3417C18.3018 14.3146 18.3145 14.2893 18.3338 14.2687C18.5683 14.052 18.7127 13.7622 18.7405 13.4523C18.7784 12.8592 18.4449 12.7535 18.2606 12.7319C18.0761 12.7103 18.2327 12.9385 18.3566 13.0441C18.4803 13.1498 18.1519 13.1882 17.9422 13.1906C17.7326 13.193 17.4042 13.1569 17.5279 13.0489C17.6518 12.9409 17.8032 12.6983 17.6189 12.7343C17.4344 12.7703 17.096 12.8568 17.1414 13.4499H17.1541ZM16.1436 16.9583L16.1639 20.4689H17.0884L17.0606 16.9534L16.1436 16.9583ZM25.0913 2.38223C25.2734 2.82341 25.5294 3.23372 25.8492 3.5973C26.0546 3.83033 26.2821 4.04495 26.5286 4.23846C26.5396 4.24538 26.5522 4.24966 26.5654 4.2509C26.5785 4.25214 26.5917 4.25032 26.604 4.24558C26.6162 4.24085 26.6269 4.23335 26.6354 4.22373C26.6439 4.21412 26.6498 4.20268 26.6525 4.19043C26.6963 3.88574 26.7107 3.57789 26.6954 3.27072C26.6697 2.30793 26.2928 1.38354 25.6294 0.655679C25.424 0.422649 25.1965 0.208031 24.9499 0.0145268C24.939 0.00695365 24.9264 0.0021483 24.9131 0.000571001C24.8998 -0.0010063 24.8862 0.00069724 24.8737 0.0055194C24.8614 0.0103416 24.8504 0.0181203 24.8421 0.0281079C24.8338 0.0380953 24.8283 0.0499566 24.8261 0.0625534C24.7823 0.367236 24.7679 0.675087 24.7831 0.982259C24.7999 1.46054 24.8971 1.93317 25.0711 2.38223H25.0913ZM15.267 28.3861L20.8069 28.3574L19.8772 27.4761L19.8395 23.9966H18.9249L18.9452 27.4857H17.0985L17.0783 23.9966H16.1639L16.184 27.4857L15.267 28.3861ZM22.4716 2.89371C23.2467 3.21582 24.0864 3.37318 24.9322 3.35476C24.9446 3.35446 24.9567 3.3508 24.967 3.34422C24.9774 3.33765 24.9855 3.3284 24.9906 3.31758C24.9956 3.30677 24.9973 3.29481 24.9955 3.28311C24.9935 3.27141 24.9883 3.26046 24.9802 3.2515C24.4327 2.63108 23.7512 2.12987 22.9819 1.7819C22.2059 1.46004 21.3654 1.30271 20.5189 1.32085C20.5065 1.32169 20.4945 1.32578 20.4843 1.33264C20.4742 1.33952 20.4661 1.34891 20.4612 1.35982C20.4562 1.37071 20.4545 1.3827 20.4562 1.39446C20.4579 1.40622 20.4631 1.41731 20.4709 1.4265C21.0198 2.0459 21.7021 2.54622 22.4716 2.89371ZM25.0736 4.23365C24.5918 4.13325 24.0956 4.11052 23.6059 4.16642C23.2916 4.19994 22.9813 4.26103 22.6788 4.34891C22.6666 4.35409 22.656 4.3619 22.6476 4.37169C22.6391 4.38149 22.6331 4.39302 22.6302 4.40535C22.6273 4.4177 22.6274 4.43052 22.6306 4.44281C22.6337 4.4551 22.6399 4.46652 22.6485 4.47618C22.8823 4.68327 23.1359 4.869 23.4064 5.03089C24.2358 5.55584 25.2376 5.77684 26.2256 5.65283C26.5399 5.6193 26.8502 5.55821 27.1526 5.47032C27.1648 5.46514 27.1755 5.45734 27.1839 5.44755C27.1923 5.43775 27.1983 5.42623 27.2013 5.41389C27.2042 5.40154 27.2041 5.38872 27.2009 5.37643C27.1977 5.36414 27.1916 5.35271 27.1829 5.34306C26.9492 5.13597 26.6955 4.95025 26.4251 4.78835C26.0103 4.53319 25.5535 4.34571 25.0736 4.23365ZM33.5742 18.1108C33.5565 17.7871 33.5075 17.4655 33.4277 17.1504C33.307 16.6578 33.104 16.1867 32.8265 15.7551C32.5411 15.3327 32.1843 14.9579 31.7705 14.6457C31.5077 14.4443 31.2261 14.2657 30.9293 14.1127C30.9163 14.1075 30.9023 14.1056 30.8882 14.1068C30.8743 14.1081 30.8608 14.1126 30.8491 14.12C30.8375 14.1273 30.8278 14.1373 30.8211 14.149C30.8144 14.1607 30.8107 14.1738 30.8106 14.1872C30.8295 14.511 30.8794 14.8324 30.9596 15.1477C31.1836 16.1424 31.7695 17.03 32.6143 17.6547C32.8777 17.8553 33.1593 18.0337 33.4555 18.1877C33.4687 18.1929 33.483 18.1948 33.4972 18.1935C33.5112 18.1921 33.5249 18.1875 33.5367 18.1798C33.5484 18.1721 33.5581 18.1618 33.5645 18.1498C33.5711 18.1378 33.5744 18.1244 33.5742 18.1108ZM30.7751 12.9672C31.1506 13.2787 31.5774 13.5294 32.0382 13.7093C32.3327 13.8257 32.6381 13.9157 32.9502 13.9782C32.9634 13.9798 32.9768 13.9783 32.9892 13.9739C33.0016 13.9694 33.0127 13.9621 33.0214 13.9526C33.0302 13.9431 33.0363 13.9317 33.0392 13.9194C33.0423 13.9071 33.042 13.8944 33.0386 13.8822C32.9334 13.5904 32.8006 13.3084 32.642 13.0393C32.4007 12.6204 32.0884 12.2424 31.7175 11.9203C31.3436 11.6068 30.9166 11.3559 30.4544 11.1783C30.1611 11.0603 29.8566 10.9694 29.5449 10.9069C29.5316 10.9058 29.5183 10.9076 29.5059 10.9124C29.4936 10.9172 29.4826 10.9247 29.4739 10.9344C29.4652 10.944 29.4591 10.9555 29.4562 10.9679C29.4531 10.9802 29.4533 10.9931 29.4566 11.0054C29.5612 11.2969 29.6931 11.579 29.8507 11.8482C30.0919 12.27 30.4041 12.6512 30.7751 12.9769V12.9672ZM32.498 22.731C32.6143 22.4094 32.6989 22.0782 32.7507 21.7416C32.9283 20.6897 32.7187 19.6117 32.1571 18.6897C31.9842 18.3953 31.7838 18.1164 31.5583 17.8564C31.5481 17.846 31.5354 17.8384 31.5212 17.834C31.5071 17.8296 31.492 17.8287 31.4775 17.8313C31.4628 17.834 31.4491 17.8401 31.4377 17.8491C31.4263 17.858 31.4173 17.8697 31.4118 17.8828C31.2968 18.2048 31.2122 18.5358 31.1591 18.8721C30.9819 19.9233 31.1917 21.0004 31.7528 21.9218C31.9261 22.2171 32.1274 22.4968 32.354 22.7575C32.3635 22.7675 32.3755 22.7752 32.3889 22.7801C32.4022 22.7848 32.4165 22.7864 32.4307 22.7848C32.4448 22.7831 32.4583 22.7782 32.47 22.7706C32.4818 22.7629 32.4914 22.7526 32.498 22.7406V22.731ZM31.8589 24.6184C31.9195 24.2223 31.5331 23.9629 31.3209 23.8549C31.4308 23.5971 31.4512 23.3127 31.3789 23.0432C31.3459 22.9476 31.2906 22.8605 31.2171 22.7881C31.1436 22.7158 31.0539 22.6602 30.9546 22.6253C30.8612 22.5834 30.7588 22.5631 30.6556 22.566C30.5524 22.569 30.4514 22.5951 30.361 22.6422C30.1244 22.7945 29.9469 23.0164 29.8557 23.2737C29.6283 23.2113 29.1661 23.1344 28.9411 23.4683C28.6734 23.862 28.873 24.388 29.0069 24.6544C28.8911 24.6671 28.7823 24.7134 28.695 24.7868C28.6079 24.8603 28.5465 24.9575 28.5194 25.0651C28.4911 25.3513 28.5717 25.6375 28.7466 25.872C28.6734 25.9416 28.4107 27.0318 29.123 27.3128C29.8355 27.5937 30.3558 26.6044 30.3482 26.5035H30.3634C30.6512 26.4486 30.9064 26.2926 31.0783 26.0664C31.1318 25.9651 31.1529 25.851 31.139 25.7383C31.125 25.6257 31.0767 25.5194 31.0001 25.4325C31.2804 25.3484 31.7857 25.1011 31.8589 24.6281V24.6184ZM33.9987 19.0138C33.7694 19.4786 33.6209 19.9757 33.559 20.4858C33.5161 20.8138 33.5034 21.1449 33.5211 21.4752C33.523 21.4886 33.5282 21.5014 33.5365 21.5123C33.5447 21.5233 33.5557 21.5322 33.5686 21.5382C33.5813 21.5441 33.5955 21.547 33.6096 21.5464C33.6238 21.5459 33.6378 21.542 33.65 21.5352C33.9323 21.3496 34.1954 21.1389 34.4356 20.906C34.8163 20.5461 35.132 20.1291 35.3703 19.6718C35.6003 19.207 35.7495 18.7098 35.8124 18.1997C35.8548 17.8716 35.8666 17.5405 35.8478 17.2104C35.8464 17.1968 35.8413 17.1837 35.8333 17.1724C35.8251 17.1611 35.8141 17.1519 35.8014 17.1457C35.7885 17.1394 35.7742 17.1364 35.7598 17.1368C35.7454 17.1372 35.7313 17.141 35.719 17.148C35.4373 17.3343 35.1743 17.5449 34.9333 17.7771C34.5517 18.1408 34.2359 18.5619 33.9987 19.0234V19.0138ZM34.0643 14.9772C33.9319 15.4547 33.8815 15.9492 33.9153 16.442C33.9335 16.7585 33.9825 17.0728 34.0617 17.3808C34.0655 17.3933 34.0726 17.4047 34.0823 17.4138C34.0919 17.4231 34.1039 17.4298 34.117 17.4333C34.1301 17.4369 34.144 17.4373 34.1573 17.4344C34.1705 17.4315 34.1829 17.4255 34.1932 17.417C34.4247 17.1955 34.6344 16.9543 34.8196 16.6965C35.4194 15.8838 35.7042 14.8986 35.6254 13.9086C35.6064 13.5914 35.5582 13.2765 35.4814 12.9672C35.4768 12.9551 35.4692 12.9442 35.4592 12.9355C35.4493 12.9267 35.4373 12.9202 35.4242 12.9168C35.4111 12.9132 35.3973 12.9127 35.384 12.9153C35.3708 12.9177 35.3582 12.9232 35.3476 12.9312C35.1164 13.153 34.9067 13.394 34.721 13.6516C34.4269 14.0605 34.2051 14.5122 34.0643 14.9892V14.9772ZM27.3901 6.47888C26.9014 6.37865 26.3983 6.35754 25.9022 6.41645C25.5834 6.45128 25.2687 6.5148 24.9625 6.60615C24.9499 6.61124 24.9388 6.6191 24.9301 6.62909C24.9213 6.63907 24.9152 6.6509 24.9122 6.66358C24.9093 6.67626 24.9096 6.68943 24.913 6.702C24.9164 6.71456 24.923 6.72616 24.9322 6.73583C25.1703 6.94738 25.4281 7.13787 25.7026 7.30494C26.1258 7.56147 26.5912 7.74895 27.0794 7.85964C27.5681 7.95987 28.0712 7.98099 28.5673 7.92208C28.8861 7.88724 29.2008 7.82373 29.507 7.73237C29.5196 7.72761 29.5308 7.72 29.5396 7.71024C29.5482 7.70048 29.5544 7.68882 29.5574 7.6763C29.5603 7.66378 29.5601 7.65076 29.5567 7.63836C29.5531 7.62596 29.5465 7.61454 29.5374 7.6051C29.3041 7.39601 29.0504 7.20864 28.7795 7.0456C28.3539 6.78268 27.8839 6.591 27.3901 6.47888ZM30.1967 7.48503C30.341 7.7586 30.5101 8.01973 30.7019 8.26546C30.7108 8.27501 30.7222 8.28228 30.7348 8.28662C30.7475 8.29095 30.7611 8.29224 30.7744 8.29032C30.7876 8.28842 30.8002 8.28339 30.811 8.27569C30.8217 8.268 30.8303 8.25788 30.8358 8.24625C30.9523 7.95482 31.0419 7.65433 31.1036 7.34816C31.2013 6.87355 31.2184 6.38712 31.1541 5.90737C31.0827 5.42926 30.9299 4.96536 30.7019 4.53381C30.5597 4.2561 30.3907 3.9916 30.1967 3.74378C30.188 3.73416 30.1769 3.72675 30.1643 3.72224C30.1518 3.71771 30.1382 3.71621 30.125 3.71789C30.1117 3.71955 30.0991 3.72433 30.0882 3.73178C30.0773 3.73923 30.0687 3.74914 30.0628 3.76058C29.9418 4.0532 29.848 4.35532 29.7825 4.66348C29.686 5.13824 29.6689 5.62447 29.7319 6.10428C29.808 6.58523 29.965 7.05144 30.1967 7.48503ZM28.1126 5.71046C28.295 5.97945 28.5021 6.23257 28.7315 6.46688C28.742 6.47544 28.7546 6.48145 28.768 6.48442C28.7815 6.48738 28.7955 6.48721 28.809 6.48391C28.8223 6.48061 28.8347 6.47428 28.8449 6.46546C28.8552 6.45664 28.8631 6.4456 28.8679 6.43326C28.9556 6.11866 29.013 5.79717 29.0397 5.47274C29.1413 4.46564 28.8735 3.45612 28.2818 2.61516C28.1024 2.34907 27.8977 2.0991 27.6706 1.86834C27.6606 1.85912 27.6482 1.85251 27.6348 1.84916C27.6212 1.84581 27.607 1.84582 27.5936 1.84921C27.5801 1.85259 27.5678 1.85923 27.5579 1.86847C27.5479 1.87771 27.5405 1.88925 27.5366 1.90197C27.4486 2.21648 27.3911 2.53799 27.3648 2.8625C27.319 3.36307 27.3582 3.86739 27.4811 4.35611C27.6128 4.83679 27.8251 5.29413 28.1101 5.71046H28.1126ZM33.266 12.6383C33.3139 12.9437 33.3908 13.2443 33.4958 13.5363C33.5011 13.5479 33.5092 13.558 33.5196 13.5659C33.5298 13.5737 33.5419 13.5791 33.5549 13.5814C33.5678 13.5839 33.5812 13.5832 33.5939 13.5795C33.6065 13.5758 33.618 13.5692 33.6273 13.5603C33.8314 13.3219 34.0123 13.0663 34.1678 12.7968C34.6696 11.9533 34.8482 10.9706 34.6731 10.016C34.6252 9.7099 34.5482 9.40851 34.4432 9.11554C34.4378 9.10419 34.4295 9.09429 34.4191 9.08667C34.4087 9.07907 34.3965 9.07398 34.3835 9.07185C34.3705 9.06972 34.3573 9.07062 34.3449 9.07447C34.3323 9.07831 34.321 9.08499 34.3119 9.09392C34.1078 9.3316 33.9269 9.58639 33.7713 9.85514C33.2681 10.699 33.0853 11.6816 33.2534 12.6383H33.266ZM32.4703 10.5587C32.4777 10.5691 32.4876 10.5776 32.4994 10.5835C32.511 10.5894 32.5239 10.5925 32.5373 10.5925C32.5505 10.5925 32.5634 10.5894 32.575 10.5835C32.5868 10.5776 32.5968 10.5691 32.6041 10.5587C32.7598 10.2866 32.8884 10.0012 32.9881 9.70626C33.3209 8.79545 33.3147 7.80366 32.9704 6.89671C32.8647 6.60711 32.7329 6.32671 32.5764 6.05866C32.5689 6.04825 32.559 6.03973 32.5473 6.03385C32.5357 6.02796 32.5226 6.02488 32.5094 6.02488C32.4962 6.02488 32.4832 6.02796 32.4715 6.03385C32.4599 6.03973 32.4499 6.04825 32.4425 6.05866C32.2874 6.32773 32.1589 6.6099 32.0585 6.90152C31.7225 7.8118 31.7287 8.80467 32.0761 9.71106C32.1803 10.0044 32.3122 10.2881 32.4703 10.5587ZM28.6355 8.59204C28.3199 8.57082 28.0027 8.57725 27.6882 8.61126C27.675 8.61391 27.6628 8.61955 27.6524 8.62771C27.642 8.63587 27.6338 8.64629 27.6287 8.6581C27.6234 8.66989 27.6213 8.68272 27.6224 8.69547C27.6235 8.70822 27.6279 8.72053 27.6351 8.73133C27.8281 8.97501 28.0436 9.20165 28.2794 9.4085C28.9969 10.0678 29.9404 10.4592 30.9369 10.5107C31.2527 10.5319 31.5697 10.5255 31.8842 10.4915C31.8974 10.4888 31.9096 10.4832 31.92 10.475C31.9304 10.4669 31.9386 10.4565 31.9437 10.4447C31.949 10.4329 31.9511 10.42 31.95 10.4073C31.9489 10.3945 31.9445 10.3822 31.9373 10.3714C31.7437 10.1319 31.5282 9.90931 31.2931 9.70626C30.9325 9.38291 30.5174 9.11912 30.0654 8.92583C29.6119 8.73864 29.1285 8.62579 28.6355 8.59204ZM8.65096 5.56878C8.95541 5.65361 9.26746 5.71149 9.58312 5.74168C10.5718 5.85397 11.5697 5.62192 12.3922 5.08852C12.6632 4.92474 12.917 4.73657 13.1501 4.52661C13.1587 4.51695 13.1648 4.50554 13.168 4.49324C13.1712 4.48095 13.1713 4.46813 13.1684 4.45578C13.1654 4.44345 13.1594 4.43192 13.151 4.42212C13.1426 4.41232 13.1319 4.40452 13.1198 4.39934C12.8162 4.31445 12.505 4.25656 12.1901 4.22644C11.1982 4.11267 10.1965 4.34473 9.37092 4.87961C9.10054 5.04418 8.84683 5.2323 8.61308 5.44151C8.60407 5.45144 8.59779 5.46333 8.59481 5.47613C8.59183 5.48893 8.59224 5.50223 8.596 5.51484C8.59975 5.52745 8.60674 5.53898 8.61633 5.5484C8.62592 5.55781 8.63782 5.56481 8.65096 5.56878ZM6.54414 29.5964C6.7816 28.9025 5.73829 28.3814 5.63724 28.3958V28.3814C5.56161 28.1013 5.38222 27.8565 5.132 27.6922C5.0281 27.6417 4.9104 27.6226 4.79477 27.6376C4.67915 27.6527 4.57114 27.7011 4.4853 27.7762C4.36153 27.5097 4.07354 27.0222 3.58346 26.9574C3.16917 26.9045 2.93171 27.2864 2.8256 27.4928C2.56014 27.389 2.26566 27.3729 1.98945 27.4472C1.89242 27.4823 1.80547 27.5386 1.73568 27.6117C1.66589 27.6846 1.61521 27.7723 1.58778 27.8675C1.55414 27.961 1.54235 28.0603 1.55327 28.1586C1.56417 28.257 1.5975 28.3518 1.65093 28.4365C1.82085 28.6617 2.06139 28.8298 2.33806 28.9168C2.28753 29.1402 2.23953 29.5868 2.59068 29.8029C3.01507 30.055 3.54051 29.8533 3.80323 29.7189C3.82196 29.8326 3.8752 29.9386 3.95644 30.0239C4.03766 30.1092 4.14333 30.1701 4.26047 30.1992C4.55375 30.2194 4.84427 30.1336 5.07391 29.959H5.08653C5.18757 30.0239 6.30415 30.2928 6.54414 29.5964ZM1.11791 16.8694C1.30591 17.1273 1.51813 17.3684 1.75199 17.5898C1.76243 17.5984 1.77493 17.6044 1.78841 17.6071C1.80187 17.61 1.81585 17.6096 1.82912 17.6061C1.84239 17.6025 1.85452 17.5958 1.86442 17.5867C1.87432 17.5776 1.88169 17.5663 1.88586 17.5538C1.95795 17.2441 2.00274 16.9292 2.01975 16.6124C2.04692 16.1197 1.99062 15.6259 1.85303 15.15C1.7052 14.6791 1.47829 14.2339 1.18107 13.8317C0.992397 13.5737 0.779312 13.3325 0.544469 13.1113C0.5341 13.1027 0.521591 13.0968 0.508128 13.094C0.494663 13.0914 0.480692 13.0919 0.467536 13.0958C0.45438 13.0997 0.442475 13.1066 0.43295 13.1161C0.423425 13.1255 0.416596 13.1371 0.413108 13.1498C0.338424 13.4582 0.293608 13.7724 0.279222 14.0887C0.212417 15.0799 0.508772 16.0624 1.11791 16.8694ZM9.64881 31.455V31.443C9.51386 31.1859 9.28741 30.9826 9.00968 30.8692C8.89692 30.8401 8.77749 30.8448 8.66765 30.8827C8.55781 30.9204 8.46289 30.9895 8.39582 31.0805C8.21646 30.8403 7.8249 30.4249 7.3323 30.4585C6.91801 30.4873 6.76896 30.9075 6.71845 31.1285C6.43531 31.0825 6.14415 31.1264 5.88986 31.2533C5.8038 31.3056 5.73181 31.3762 5.67961 31.4595C5.62741 31.543 5.59645 31.6368 5.58924 31.7336C5.57451 31.8333 5.58342 31.9348 5.61533 32.0308C5.64724 32.1267 5.70133 32.2148 5.77366 32.2883C5.98839 32.4771 6.26101 32.5958 6.55171 32.6269C6.55171 32.855 6.60477 33.304 7.00137 33.441C7.47124 33.6066 7.94363 33.304 8.17099 33.1216C8.21258 33.2306 8.28744 33.3255 8.38597 33.3939C8.48452 33.4623 8.60228 33.5012 8.72423 33.5057C9.01962 33.4723 9.29055 33.3331 9.48208 33.1167C9.57049 33.1671 10.7452 33.2056 10.8159 32.478C10.8866 31.7504 9.74733 31.4382 9.64881 31.4646V31.455ZM0.602571 19.8566C0.84517 20.313 1.16619 20.7278 1.55241 21.0838C1.79443 21.3167 2.05919 21.5275 2.34311 21.7129C2.35554 21.7198 2.3696 21.7236 2.38399 21.724C2.39839 21.7244 2.41265 21.7213 2.42548 21.7151C2.4383 21.709 2.44928 21.6997 2.45741 21.6884C2.46553 21.6771 2.47053 21.6641 2.47195 21.6505C2.48753 21.32 2.47147 20.9888 2.42394 20.6611C2.29982 19.6345 1.80209 18.6815 1.01687 17.9668C0.773651 17.7369 0.508056 17.5295 0.223645 17.3473C0.211294 17.3409 0.197486 17.3374 0.183432 17.3373C0.16938 17.3372 0.155509 17.3405 0.143039 17.3466C0.130571 17.3528 0.119883 17.3617 0.111915 17.3728C0.103946 17.3837 0.0989405 17.3964 0.0973366 17.4097C0.0783719 17.7399 0.0910555 18.071 0.13523 18.3991C0.206802 18.9089 0.364619 19.4043 0.602571 19.8662V19.8566ZM2.59826 25.3604C2.91987 25.5387 3.25813 25.6881 3.60872 25.8071C3.62412 25.8103 3.64011 25.81 3.65533 25.8061C3.67057 25.8022 3.68457 25.7949 3.69621 25.7847C3.70784 25.7746 3.71675 25.762 3.72219 25.7479C3.72762 25.7338 3.72943 25.7187 3.72745 25.7038C3.64735 25.3495 3.53493 25.0023 3.39147 24.6665C3.17208 24.1422 2.86403 23.6556 2.47953 23.2257C2.09189 22.8131 1.63525 22.4642 1.12802 22.1932C0.806481 22.0155 0.468187 21.8667 0.117546 21.7489C0.102407 21.7451 0.0864963 21.7449 0.0712763 21.7484C0.0560563 21.752 0.0420157 21.7591 0.0304451 21.7691C0.0188745 21.7791 0.0101458 21.7918 0.00506041 21.8059C-2.50032e-05 21.82 -0.00130347 21.8351 0.00134261 21.8498C0.0799104 22.2045 0.19237 22.5517 0.337324 22.8872C0.763805 23.9435 1.56899 24.8229 2.61088 25.3701L2.59826 25.3604ZM11.359 29.2795C11.5009 29.0254 11.5421 28.7315 11.4752 28.4509C11.4329 28.3472 11.3582 28.2581 11.2611 28.1959C11.164 28.1336 11.0492 28.1012 10.9321 28.1028C11.0306 27.8242 11.1544 27.2791 10.8361 26.919C10.5658 26.6164 10.1212 26.7484 9.90394 26.8421C9.77789 26.5963 9.56892 26.3976 9.3103 26.2778C9.21408 26.2424 9.11049 26.2289 9.00782 26.2386C8.90516 26.2482 8.80629 26.2805 8.71918 26.333C8.62595 26.3807 8.54498 26.4474 8.48208 26.5283C8.4192 26.6093 8.37593 26.7026 8.35541 26.8012C8.32131 27.0774 8.3806 27.3566 8.52465 27.5985C8.33014 27.733 7.98153 28.0355 8.09773 28.4222C8.23415 28.8808 8.76969 29.0658 9.05768 29.1425C8.99236 29.2375 8.95757 29.3485 8.95757 29.4619C8.95757 29.5753 8.99236 29.6864 9.05768 29.7813C9.25616 29.9819 9.52659 30.1044 9.81553 30.1247C9.81553 30.2232 10.4774 31.1405 11.1443 30.773C11.8112 30.4056 11.3969 29.3586 11.3186 29.2986L11.359 29.2795ZM22.6182 28.9168L24.5356 33.6907C20.3595 35.1971 15.7522 35.2218 11.5586 33.7603L13.4179 28.9576C16.3895 29.9987 19.6568 29.9843 22.6182 28.9168ZM35.8806 21.5568C35.5294 21.6782 35.191 21.8309 34.8702 22.013C34.3615 22.293 33.9056 22.6517 33.5211 23.0744C33.1428 23.5053 32.8407 23.992 32.6269 24.5153C32.4858 24.8525 32.3776 25.2013 32.3035 25.5574C32.3014 25.5722 32.3032 25.5873 32.3085 25.6013C32.314 25.6153 32.323 25.6279 32.3347 25.6378C32.3464 25.6478 32.3605 25.6549 32.3758 25.6584C32.3911 25.662 32.4071 25.6619 32.4222 25.6583C32.7731 25.5359 33.1114 25.3832 33.4328 25.202C33.9414 24.922 34.3973 24.5633 34.7817 24.1406C35.1593 23.7096 35.4605 23.223 35.6735 22.6999C35.8147 22.3625 35.9237 22.0136 35.9993 21.6576C36.0011 21.6435 35.9994 21.6293 35.9944 21.616C35.9894 21.6026 35.9811 21.5906 35.9703 21.5808C35.9596 21.571 35.9465 21.5637 35.9322 21.5595C35.918 21.5554 35.9028 21.5545 35.8882 21.5568H35.8806ZM34.0567 27.2695C33.7787 27.1984 33.4837 27.217 33.218 27.3224C33.1195 27.1182 32.877 26.7388 32.4601 26.7965C31.97 26.8661 31.6871 27.356 31.5659 27.6249C31.4788 27.5507 31.37 27.5035 31.254 27.4898C31.1379 27.4761 31.0203 27.4964 30.9167 27.5481C30.6721 27.7166 30.4991 27.9628 30.4292 28.2421V28.2541C30.3281 28.2541 29.2898 28.7824 29.5374 29.4739C29.7849 30.1655 30.9116 29.8869 30.9849 29.8173C31.2173 29.9873 31.5086 30.068 31.8008 30.043C31.9171 30.0133 32.0216 29.952 32.1019 29.8667C32.1821 29.7814 32.2347 29.6759 32.253 29.5628C32.5056 29.6949 33.0462 29.8918 33.4681 29.6325C33.8218 29.4139 33.7713 28.9672 33.7208 28.7439C33.9971 28.6523 34.2352 28.479 34.4002 28.2492C34.4537 28.1626 34.4862 28.0656 34.4954 27.9656C34.5045 27.8655 34.4902 27.7647 34.4533 27.6705C34.4234 27.5807 34.373 27.4982 34.3057 27.4289C34.2385 27.3596 34.1561 27.3052 34.0643 27.2695H34.0567ZM30.2194 31.1333C29.9638 31.0076 29.6711 30.9671 29.3883 31.018C29.3353 30.797 29.1812 30.3792 28.7669 30.3528C28.2617 30.324 27.8878 30.7466 27.7085 30.9867C27.64 30.8967 27.5443 30.8288 27.4342 30.7918C27.324 30.7549 27.2047 30.7509 27.0921 30.7803C26.8165 30.8981 26.5937 31.1048 26.463 31.3637V31.3757C26.3645 31.3493 25.2328 31.6639 25.3237 32.3916C25.4147 33.1191 26.5741 33.0663 26.6626 33.0134C26.8547 33.228 27.1258 33.3646 27.4205 33.3953C27.5398 33.3899 27.6549 33.3515 27.7518 33.2851C27.8487 33.2185 27.9232 33.1266 27.9661 33.0207C28.196 33.2031 28.6684 33.501 29.1382 33.3304C29.5323 33.1888 29.5803 32.7397 29.5778 32.5116C29.8682 32.4778 30.1394 32.3557 30.3508 32.1634C30.4222 32.0895 30.4754 32.0013 30.5064 31.9053C30.5375 31.8094 30.5456 31.7081 30.5302 31.6087C30.5211 31.5127 30.4891 31.4199 30.4366 31.3376C30.3841 31.2552 30.3123 31.1852 30.227 31.1333H30.2194ZM26.2356 30.0382H26.2508C26.5407 30.0159 26.8113 29.8907 27.0087 29.6876C27.073 29.5924 27.1074 29.4815 27.1074 29.3683C27.1074 29.255 27.073 29.1441 27.0087 29.0489C27.2966 28.9792 27.8272 28.7895 27.9611 28.3285C28.0722 27.9419 27.7085 27.6418 27.5214 27.5097C27.6624 27.2659 27.7181 26.9859 27.6806 26.71C27.6602 26.6115 27.6166 26.5188 27.5532 26.4386C27.4898 26.3582 27.4081 26.2927 27.3144 26.2465C27.2266 26.1943 27.1271 26.1624 27.0239 26.1536C26.9207 26.1449 26.8168 26.1594 26.7207 26.1961C26.4736 26.3199 26.2752 26.5161 26.1548 26.7557C25.9376 26.6668 25.4879 26.5395 25.2226 26.8445C24.9094 27.2071 25.0407 27.7522 25.1393 28.0284C25.0228 28.0282 24.9091 28.0619 24.8133 28.1251C24.7176 28.1882 24.6445 28.2776 24.6038 28.3814C24.5391 28.6627 24.5831 28.9567 24.7275 29.2098V29.2218C24.6493 29.2818 24.2501 30.336 24.922 30.6962C25.594 31.0564 26.2356 30.1391 26.2432 30.0382H26.2356ZM6.95591 6.54852C6.96071 6.56086 6.96858 6.5719 6.97885 6.58073C6.98912 6.58954 7.00148 6.59587 7.01488 6.59917C7.02828 6.60247 7.04231 6.60265 7.0558 6.59969C7.06928 6.59672 7.08181 6.5907 7.09231 6.58214C7.32007 6.34637 7.52391 6.0907 7.70112 5.81852C8.28387 4.97213 8.5376 3.95895 8.41856 2.95375C8.38714 2.62919 8.3263 2.30781 8.23668 1.99321C8.23209 1.98067 8.22426 1.96943 8.21391 1.96051C8.20356 1.95159 8.19102 1.94529 8.17743 1.94218C8.16385 1.93907 8.14967 1.93926 8.13619 1.94273C8.1227 1.94619 8.11034 1.95281 8.10026 1.962C7.86966 2.20331 7.6633 2.46459 7.48387 2.74243C6.90452 3.58747 6.65183 4.59751 6.76896 5.60001C6.79972 5.92106 6.86231 6.23865 6.95591 6.54852ZM3.86387 13.8702C4.3261 13.6863 4.75295 13.4307 5.12695 13.1138C5.49407 12.7876 5.80218 12.4064 6.0389 11.9851C6.18895 11.7163 6.31486 11.436 6.4153 11.1471C6.41821 11.1347 6.41798 11.1219 6.4146 11.1096C6.41123 11.0974 6.40482 11.0861 6.39592 11.0767C6.38701 11.0673 6.37588 11.0601 6.36343 11.0556C6.35097 11.0511 6.33757 11.0495 6.32436 11.051C6.01355 11.1166 5.70991 11.2099 5.41747 11.3296C4.95532 11.5136 4.5285 11.7692 4.15437 12.0859C3.7887 12.4127 3.48153 12.7939 3.24495 13.2146C3.08873 13.4851 2.95934 13.769 2.85844 14.0623C2.85502 14.0744 2.8548 14.0872 2.85782 14.0996C2.86083 14.1118 2.86697 14.1232 2.8757 14.1327C2.88444 14.1422 2.89551 14.1495 2.90792 14.1539C2.92032 14.1584 2.9337 14.1599 2.94687 14.1583C3.26144 14.0901 3.5685 13.9936 3.86387 13.8702ZM3.5102 22.8943C3.5162 22.907 3.52533 22.9182 3.53682 22.9267C3.54831 22.9354 3.56184 22.9413 3.57621 22.9438C3.5906 22.9465 3.60543 22.9457 3.61944 22.9416C3.63346 22.9376 3.64625 22.9304 3.65671 22.9207C3.87883 22.6577 4.07581 22.3765 4.24531 22.0803C4.51419 21.6183 4.70273 21.1179 4.8036 20.5986C4.8923 20.0761 4.8923 19.5435 4.8036 19.021C4.75217 18.686 4.66758 18.3564 4.55098 18.0364C4.54532 18.0238 4.53645 18.0126 4.5252 18.004C4.51392 17.9953 4.5006 17.9894 4.48638 17.9868C4.47216 17.9842 4.45748 17.9849 4.44364 17.989C4.4298 17.993 4.41721 18.0003 4.40699 18.01C4.18324 18.2724 3.98536 18.5537 3.81587 18.8505C3.26532 19.7781 3.06898 20.8579 3.26011 21.9073C3.31233 22.2428 3.39604 22.573 3.5102 22.8943ZM2.37847 18.2862C2.37888 18.2996 2.38278 18.3128 2.38981 18.3244C2.39685 18.3361 2.40681 18.3459 2.4188 18.353C2.43081 18.3602 2.44446 18.3644 2.45858 18.3653C2.4727 18.3662 2.48684 18.3638 2.49973 18.3582C2.79503 18.2037 3.07418 18.0228 3.33337 17.818C4.16958 17.1835 4.74526 16.2905 4.96022 15.2941C5.03794 14.9789 5.08362 14.6572 5.09663 14.3336C5.09668 14.3202 5.09318 14.3071 5.08645 14.2954C5.07971 14.2836 5.06997 14.2737 5.05812 14.2666C5.04628 14.2594 5.03272 14.2551 5.01868 14.2542C5.00466 14.2534 4.99063 14.2559 4.9779 14.2616C4.68224 14.4168 4.40232 14.5976 4.14174 14.8019C3.73193 15.1191 3.3795 15.4978 3.09843 15.9233C2.82683 16.3583 2.62984 16.8317 2.51488 17.3257C2.43999 17.6414 2.39435 17.9628 2.37847 18.2862ZM1.72672 12.9696C1.88423 13.2375 2.06775 13.4907 2.2749 13.726C2.28392 13.7355 2.29537 13.7427 2.30812 13.7467C2.32086 13.7507 2.33449 13.7515 2.34768 13.7491C2.36087 13.7467 2.37319 13.7412 2.38345 13.7328C2.39371 13.7247 2.40157 13.714 2.40626 13.702C2.50822 13.4089 2.58179 13.1075 2.62604 12.8016C2.78558 11.8436 2.59097 10.8626 2.07533 10.0256C1.91809 9.75706 1.73365 9.50373 1.52463 9.26922C1.51559 9.25977 1.50416 9.25267 1.49141 9.24863C1.47867 9.24459 1.46504 9.24374 1.45185 9.24615C1.43866 9.24856 1.42634 9.25416 1.41608 9.26241C1.40581 9.27065 1.39796 9.28127 1.39327 9.29323C1.29169 9.5839 1.21895 9.88297 1.17601 10.1865C1.10151 10.6648 1.10918 11.1514 1.19875 11.6273C1.29651 12.0992 1.47486 12.5526 1.72672 12.9696ZM10.8462 3.43161C11.6916 3.44173 12.5292 3.27791 13.3016 2.95134C14.0708 2.59266 14.7497 2.08078 15.2922 1.45052C15.3004 1.44158 15.3057 1.43061 15.3075 1.41891C15.3095 1.40721 15.3077 1.39526 15.3027 1.38444C15.2976 1.37362 15.2895 1.36439 15.2791 1.3578C15.2689 1.35122 15.2568 1.34756 15.2443 1.34726C14.3978 1.33455 13.5588 1.49849 12.7863 1.82753C12.0215 2.1842 11.3461 2.69271 10.8058 3.31875C10.7959 3.32724 10.7888 3.3383 10.7854 3.35059C10.782 3.36287 10.7825 3.37583 10.7868 3.38786C10.7911 3.39987 10.7991 3.41043 10.8096 3.4182C10.8202 3.42598 10.8329 3.43064 10.8462 3.43161ZM3.98007 10.6356C4.29507 10.6653 4.61238 10.6653 4.92739 10.6356C5.4188 10.6004 5.90047 10.4868 6.35215 10.2994C6.80257 10.1019 7.21498 9.83402 7.57229 9.50696C7.80989 9.30291 8.02644 9.07777 8.21899 8.83458C8.22629 8.82398 8.23072 8.81183 8.23189 8.7992C8.23305 8.78658 8.23091 8.77387 8.22565 8.76223C8.22041 8.75057 8.2122 8.74035 8.20179 8.73245C8.19136 8.72454 8.17905 8.7192 8.16594 8.71691C7.85089 8.68815 7.53368 8.68815 7.21862 8.71691C6.22243 8.77868 5.2832 9.18033 4.57372 9.84794C4.3359 10.0525 4.11857 10.2776 3.92449 10.5203C3.91725 10.5313 3.91295 10.5437 3.91196 10.5566C3.91097 10.5696 3.91332 10.5825 3.9188 10.5943C3.92428 10.6062 3.93273 10.6166 3.94342 10.6246C3.95409 10.6326 3.96668 10.638 3.98007 10.6404V10.6356ZM3.26011 10.71C3.26752 10.7204 3.27749 10.7289 3.28916 10.7348C3.30083 10.7407 3.31384 10.7438 3.32705 10.7438C3.34027 10.7438 3.35328 10.7407 3.36495 10.7348C3.37661 10.7289 3.38659 10.7204 3.394 10.71C3.54908 10.4409 3.67762 10.1588 3.77797 9.86715C4.11474 8.95959 4.10937 7.96903 3.76282 7.06481C3.65876 6.77495 3.52771 6.49448 3.37126 6.22674C3.36385 6.21634 3.35387 6.20783 3.34221 6.20194C3.33054 6.19606 3.31753 6.19298 3.30431 6.19298C3.2911 6.19298 3.27809 6.19606 3.26643 6.20194C3.25475 6.20783 3.24478 6.21634 3.23737 6.22674C3.08209 6.49407 2.95353 6.77465 2.85339 7.06481C2.51482 7.97454 2.52017 8.96797 2.86855 9.87435C2.97248 10.165 3.10352 10.4463 3.26011 10.7148V10.71ZM6.32436 7.84764C6.63178 7.93575 6.94726 7.99605 7.26662 8.02774C8.27038 8.14542 9.28508 7.9143 10.1237 7.37698C10.3946 7.21125 10.6484 7.02149 10.8816 6.81027C10.8902 6.80041 10.8963 6.7888 10.8995 6.77633C10.9026 6.76387 10.9028 6.75089 10.8998 6.73837C10.8969 6.72586 10.891 6.71415 10.8826 6.70413C10.8742 6.69412 10.8635 6.68607 10.8513 6.68059C10.543 6.59254 10.2267 6.53225 9.90648 6.50049C8.90353 6.38318 7.88977 6.6143 7.0519 7.15125C6.78101 7.31698 6.52727 7.50674 6.29404 7.71797C6.28492 7.72763 6.27834 7.73923 6.27488 7.75179C6.27141 7.76436 6.27116 7.77753 6.27411 7.79021C6.27708 7.80289 6.28319 7.81472 6.29193 7.8247C6.30067 7.83469 6.31178 7.84255 6.32436 7.84764ZM9.26735 4.3297C9.51296 4.13406 9.73878 3.91699 9.94184 3.68134C10.2625 3.31478 10.5184 2.90118 10.6997 2.45667C10.871 2.00902 10.964 1.53773 10.975 1.0615C10.987 0.754038 10.9692 0.446177 10.922 0.141797C10.9192 0.129539 10.9134 0.118107 10.9049 0.108493C10.8965 0.0988799 10.8857 0.0913778 10.8735 0.0866422C10.8613 0.0819067 10.848 0.0800805 10.8349 0.0813229C10.8218 0.0825652 10.8092 0.0868391 10.7982 0.0937708C10.5532 0.290084 10.3275 0.50709 10.1237 0.742127C9.46955 1.47758 9.10435 2.40615 9.09051 3.36917C9.07865 3.67664 9.09641 3.9845 9.14357 4.28889C9.14725 4.30052 9.15379 4.31117 9.16264 4.31994C9.17149 4.32872 9.18241 4.33537 9.19449 4.33936C9.20657 4.34334 9.21947 4.34454 9.23214 4.34287C9.24481 4.34118 9.25687 4.33667 9.26735 4.3297ZM4.99559 8.39273C5.00118 8.40437 5.00972 8.41447 5.02046 8.42217C5.03119 8.42987 5.04377 8.4349 5.05706 8.4368C5.07036 8.43871 5.08394 8.43744 5.09658 8.4331C5.10922 8.42876 5.12053 8.42149 5.12948 8.41195C5.32245 8.16098 5.49154 7.89419 5.63471 7.6147C5.86226 7.18083 6.01333 6.71437 6.08185 6.23395C6.14088 5.75333 6.11784 5.26679 6.01363 4.79316C5.94982 4.48719 5.8568 4.18738 5.73576 3.89746C5.7295 3.88644 5.72057 3.87699 5.70972 3.86988C5.69886 3.86278 5.68639 3.85821 5.67332 3.85657C5.66027 3.85493 5.64698 3.85626 5.63455 3.86045C5.62213 3.86463 5.61093 3.87156 5.60187 3.88065C5.40814 4.13113 5.239 4.398 5.09663 4.67789C4.87017 5.11218 4.71917 5.57847 4.6495 6.05866C4.59174 6.53931 4.61476 7.02566 4.71772 7.49945C4.78079 7.80481 4.87382 8.10388 4.99559 8.39273ZM15.0143 33.0496H14.8426V30.773C14.8426 30.7387 14.8283 30.7056 14.8026 30.6814C14.7771 30.6571 14.7423 30.6433 14.7061 30.6433H14.59C14.5668 30.643 14.5439 30.6483 14.5235 30.6588C14.5032 30.6693 14.4861 30.6846 14.4738 30.7035C14.2483 31.0326 13.9553 31.3152 13.6124 31.5343C13.583 31.5529 13.5626 31.5817 13.5555 31.6145C13.5484 31.6474 13.5553 31.6815 13.5745 31.7096L13.673 31.8609C13.6822 31.8759 13.6946 31.889 13.7094 31.8993C13.7241 31.9097 13.741 31.917 13.7589 31.9209C13.7767 31.9243 13.7949 31.9245 13.8127 31.9212C13.8305 31.9179 13.8475 31.9113 13.8625 31.9017C13.9745 31.8337 14.0824 31.76 14.1858 31.6807V33.0519H13.9332C13.9074 33.0501 13.8814 33.0537 13.8572 33.0621C13.8329 33.0707 13.8109 33.0841 13.7924 33.1014C13.7741 33.1186 13.7598 33.1393 13.7505 33.1623C13.7412 33.1853 13.7372 33.2098 13.7387 33.2344V33.3184C13.7372 33.3432 13.7412 33.368 13.7506 33.3911C13.76 33.4143 13.7746 33.4352 13.7933 33.4525C13.812 33.4698 13.8344 33.4831 13.859 33.4915C13.8835 33.4998 13.9097 33.5031 13.9357 33.501L14.4915 33.4866L15.0195 33.501C15.0453 33.5027 15.0712 33.4993 15.0954 33.4907C15.1197 33.4822 15.1417 33.4688 15.1602 33.4516C15.1785 33.4343 15.193 33.4135 15.2021 33.3906C15.2114 33.3676 15.2154 33.343 15.214 33.3184V33.2393C15.2163 33.2138 15.2128 33.1881 15.2035 33.1641C15.1943 33.1401 15.1796 33.1183 15.1607 33.1002C15.1416 33.0821 15.1186 33.0682 15.0934 33.0595C15.0681 33.0507 15.0412 33.0474 15.0143 33.0496ZM17.4344 30.7586C17.4224 30.738 17.405 30.7205 17.3837 30.7084C17.3624 30.6962 17.3381 30.6895 17.3133 30.689H15.6762C15.6399 30.6896 15.6052 30.7038 15.5796 30.7285C15.5541 30.7532 15.5399 30.7864 15.5399 30.821V31.4815C15.5384 31.5059 15.5423 31.5304 15.5515 31.5532C15.5606 31.5761 15.5746 31.597 15.5927 31.6144C15.6108 31.6318 15.6326 31.6454 15.6565 31.6543C15.6805 31.6633 15.7062 31.6674 15.7318 31.6663H15.8202C15.846 31.6678 15.8719 31.664 15.896 31.6551C15.9202 31.6463 15.9421 31.6327 15.9603 31.6152C15.9784 31.5977 15.9925 31.5768 16.0014 31.5537C16.0104 31.5306 16.0141 31.5059 16.0123 31.4815V31.2869H16.904C16.5823 31.917 16.2169 32.5258 15.8102 33.1096C15.7947 33.1324 15.7868 33.1592 15.7875 33.1864V33.2848C15.7877 33.3072 15.7944 33.3293 15.8069 33.3483C15.8194 33.3674 15.8371 33.3828 15.8581 33.3929L16.0855 33.5106C16.1053 33.522 16.128 33.5279 16.1512 33.5274H16.1916L16.2826 33.4986C16.3003 33.4936 16.3168 33.4853 16.3311 33.4741C16.3454 33.463 16.3573 33.4493 16.3659 33.4337C16.7959 32.6526 17.1838 31.8511 17.5279 31.0324C17.5366 31.0161 17.5411 30.9979 17.5411 30.9796C17.5411 30.9612 17.5366 30.9431 17.5279 30.9267L17.4344 30.7586ZM18.8491 31.527C18.73 31.5258 18.6114 31.5427 18.498 31.5775L18.5182 31.3373C18.6899 31.3373 18.9123 31.3373 19.0462 31.3373C19.2421 31.3427 19.4327 31.2757 19.5778 31.1503C19.7229 31.0249 19.8112 30.8509 19.8243 30.665C19.8292 30.635 19.8231 30.6042 19.8069 30.578C19.7909 30.5517 19.7657 30.5316 19.7358 30.5209L19.6095 30.4801C19.5787 30.4699 19.5452 30.4704 19.5146 30.4813C19.4842 30.4923 19.4588 30.5132 19.4428 30.5402C19.3418 30.7226 19.3418 30.7226 19.1042 30.7395C18.9123 30.7395 18.5991 30.7395 18.3641 30.7395H18.1924C18.1562 30.7395 18.1215 30.7531 18.0959 30.7774C18.0702 30.8018 18.0559 30.8348 18.0559 30.8692V30.8907L17.9448 32.0673C17.9421 32.0854 17.9437 32.1038 17.9495 32.1212C17.9551 32.1386 17.9647 32.1547 17.9776 32.1682C17.9908 32.1811 18.0064 32.1914 18.0238 32.1983C18.0411 32.2053 18.0599 32.209 18.0787 32.209H18.2959C18.3168 32.209 18.3375 32.2044 18.3563 32.1956C18.3751 32.1869 18.3916 32.1743 18.4045 32.1586L18.4424 32.1082C18.493 32.029 18.5991 31.9906 18.791 31.9906C18.983 31.9906 19.1674 32.0482 19.1674 32.4707C19.1674 33.0279 18.935 33.1047 18.6849 33.1047C18.5986 33.1078 18.5127 33.0939 18.4324 33.0639C18.4893 32.9956 18.5204 32.911 18.5207 32.8237C18.5259 32.7746 18.5198 32.7249 18.503 32.6782C18.4861 32.6314 18.459 32.5886 18.4233 32.5527C18.3877 32.5167 18.3443 32.4884 18.2962 32.4697C18.2481 32.4511 18.1963 32.4425 18.1443 32.4444C18.0881 32.4448 18.0326 32.4563 17.9812 32.4782C17.93 32.5003 17.8842 32.5321 17.8466 32.5719C17.809 32.6116 17.7806 32.6585 17.7631 32.7093C17.7457 32.7601 17.7396 32.8138 17.7452 32.867C17.7452 33.2608 18.1367 33.5466 18.6723 33.5466C18.8244 33.5541 18.9766 33.5312 19.1189 33.4796C19.2613 33.4279 19.3907 33.3487 19.4989 33.2467C19.6072 33.1448 19.6918 33.0224 19.7473 32.8875C19.8029 32.7526 19.8282 32.6083 19.8217 32.4636C19.8335 32.3388 19.8165 32.2132 19.772 32.0952C19.7275 31.9774 19.6564 31.8701 19.5638 31.781C19.4712 31.6918 19.3594 31.6229 19.2359 31.5791C19.1126 31.5352 18.9805 31.5175 18.8491 31.527ZM21.4258 31.527C21.3074 31.5255 21.1897 31.5425 21.0772 31.5775L21.0948 31.3373C21.2642 31.3373 21.4916 31.3373 21.6228 31.3373C21.8188 31.3427 22.0094 31.2757 22.1545 31.1503C22.2996 31.0249 22.3879 30.8509 22.401 30.665C22.4064 30.6349 22.4005 30.604 22.3843 30.5777C22.3682 30.5512 22.3428 30.5312 22.3125 30.5209L22.1862 30.4801C22.1554 30.4699 22.1219 30.4704 22.0914 30.4813C22.0609 30.4923 22.0354 30.5132 22.0194 30.5402C21.921 30.7226 21.921 30.7226 21.6809 30.7395C21.489 30.7395 21.1758 30.7395 20.9408 30.7395H20.769C20.7329 30.7395 20.6981 30.7531 20.6726 30.7774C20.647 30.8018 20.6326 30.8348 20.6326 30.8692V30.8907L20.5215 32.0673C20.5188 32.0854 20.5204 32.1038 20.5261 32.1212C20.5318 32.1386 20.5414 32.1547 20.5543 32.1682C20.5675 32.1811 20.5831 32.1914 20.6005 32.1983C20.6178 32.2053 20.6365 32.209 20.6554 32.209H20.8726C20.8935 32.209 20.9142 32.2044 20.933 32.1956C20.9518 32.1869 20.9683 32.1743 20.9813 32.1586L21.0192 32.1082C21.0697 32.029 21.1758 31.9906 21.3703 31.9906C21.5648 31.9906 21.7441 32.0482 21.7441 32.4707C21.7441 33.0279 21.5117 33.1047 21.2616 33.1047C21.1796 33.1062 21.098 33.0924 21.0216 33.0639C21.0786 32.9956 21.1098 32.911 21.11 32.8237C21.1151 32.7746 21.1091 32.7249 21.0923 32.6782C21.0755 32.6314 21.0484 32.5886 21.0127 32.5527C20.977 32.5167 20.9337 32.4884 20.8856 32.4697C20.8374 32.4511 20.7856 32.4425 20.7337 32.4444C20.6776 32.4451 20.6223 32.4569 20.5714 32.479C20.5205 32.5011 20.4749 32.533 20.4376 32.5727C20.4003 32.6126 20.3721 32.6592 20.3547 32.7098C20.3375 32.7605 20.3314 32.814 20.337 32.867C20.337 33.2608 20.7261 33.5466 21.2616 33.5466C21.4138 33.5541 21.5659 33.5312 21.7083 33.4796C21.8506 33.4279 21.9801 33.3487 22.0883 33.2467C22.1965 33.1448 22.281 33.0224 22.3367 32.8875C22.3923 32.7526 22.4176 32.6083 22.411 32.4636C22.4231 32.3377 22.4059 32.2109 22.3606 32.0921C22.3153 31.9733 22.2431 31.8654 22.1491 31.7761C22.0551 31.6866 21.9417 31.6181 21.8166 31.575C21.6917 31.532 21.5582 31.5156 21.4258 31.527Z" fill="white"/>
</svg>
